{"glyphs":{"0":{"ha":694,"x_min":0,"x_max":576,"o":"m 231 1038 l 346 1038 l 346 922 l 461 922 l 461 807 l 576 807 l 576 231 l 461 231 l 461 115 l 346 115 l 346 0 l 231 0 l 231 115 l 115 115 l 115 231 l 0 231 l 0 807 l 115 807 l 115 922 l 231 922 l 231 1038 m 231 922 l 231 807 l 115 807 l 115 231 l 231 231 l 231 115 l 346 115 l 346 231 l 461 231 l 461 807 l 346 807 l 346 922 l 231 922 z "},"1":{"ha":694,"x_min":0,"x_max":576,"o":"m 231 1038 l 346 1038 l 346 115 l 576 115 l 576 0 l 0 0 l 0 115 l 231 115 l 231 807 l 115 807 l 115 692 l 0 692 l 0 807 l 115 807 l 115 922 l 231 922 l 231 1038 z "},"2":{"ha":694,"x_min":0,"x_max":576,"o":"m 115 1038 l 461 1038 l 461 922 l 576 922 l 576 576 l 461 576 l 461 461 l 346 461 l 346 346 l 231 346 l 231 231 l 115 231 l 115 115 l 576 115 l 576 0 l 0 0 l 0 231 l 115 231 l 115 346 l 231 346 l 231 461 l 346 461 l 346 576 l 461 576 l 461 922 l 115 922 l 115 692 l 0 692 l 0 922 l 115 922 l 115 1038 z "},"3":{"ha":694,"x_min":0,"x_max":576,"o":"m 0 1038 l 576 1038 l 576 807 l 461 807 l 461 692 l 346 692 l 346 576 l 461 576 l 461 461 l 576 461 l 576 115 l 461 115 l 461 0 l 115 0 l 115 115 l 0 115 l 0 231 l 115 231 l 115 115 l 461 115 l 461 461 l 115 461 l 115 576 l 231 576 l 231 692 l 346 692 l 346 807 l 461 807 l 461 922 l 0 922 l 0 1038 z "},"4":{"ha":694,"x_min":0,"x_max":576,"o":"m 346 1038 l 461 1038 l 461 346 l 576 346 l 576 231 l 461 231 l 461 0 l 346 0 l 346 231 l 0 231 l 0 461 l 115 461 l 115 692 l 231 692 l 231 807 l 346 807 l 346 1038 m 231 692 l 231 461 l 115 461 l 115 346 l 346 346 l 346 692 l 231 692 z "},"5":{"ha":694,"x_min":0,"x_max":576,"o":"m 0 1038 l 576 1038 l 576 922 l 115 922 l 115 576 l 231 576 l 231 692 l 461 692 l 461 576 l 576 576 l 576 115 l 461 115 l 461 0 l 115 0 l 115 115 l 0 115 l 0 231 l 115 231 l 115 115 l 461 115 l 461 576 l 231 576 l 231 461 l 0 461 l 0 1038 z "},"6":{"ha":694,"x_min":0,"x_max":576,"o":"m 115 1038 l 461 1038 l 461 922 l 576 922 l 576 807 l 461 807 l 461 922 l 115 922 l 115 576 l 461 576 l 461 461 l 576 461 l 576 115 l 461 115 l 461 0 l 115 0 l 115 115 l 0 115 l 0 922 l 115 922 l 115 1038 m 115 461 l 115 115 l 461 115 l 461 461 l 115 461 z "},"7":{"ha":694,"x_min":0,"x_max":576,"o":"m 0 1038 l 576 1038 l 576 807 l 461 807 l 461 576 l 346 576 l 346 346 l 231 346 l 231 0 l 115 0 l 115 346 l 231 346 l 231 576 l 346 576 l 346 807 l 461 807 l 461 922 l 0 922 l 0 1038 z "},"8":{"ha":694,"x_min":0,"x_max":576,"o":"m 115 1038 l 461 1038 l 461 922 l 576 922 l 576 576 l 461 576 l 461 461 l 576 461 l 576 115 l 461 115 l 461 0 l 115 0 l 115 115 l 0 115 l 0 461 l 115 461 l 115 576 l 0 576 l 0 922 l 115 922 l 115 1038 m 115 922 l 115 576 l 461 576 l 461 922 l 115 922 m 115 461 l 115 115 l 461 115 l 461 461 l 115 461 z "},"9":{"ha":694,"x_min":0,"x_max":576,"o":"m 115 1038 l 461 1038 l 461 922 l 576 922 l 576 115 l 461 115 l 461 0 l 115 0 l 115 115 l 0 115 l 0 231 l 115 231 l 115 115 l 461 115 l 461 461 l 115 461 l 115 576 l 0 576 l 0 922 l 115 922 l 115 1038 m 115 922 l 115 576 l 461 576 l 461 922 l 115 922 z "}," ":{"ha":694,"x_min":0,"x_max":0,"o":""},"!":{"ha":694,"x_min":231,"x_max":346,"o":"m 231 1038 l 346 1038 l 346 231 l 231 231 l 231 1038 m 231 115 l 346 115 l 346 0 l 231 0 l 231 115 z "},"\"":{"ha":694,"x_min":115,"x_max":461,"o":"m 115 1038 l 231 1038 l 231 692 l 115 692 l 115 1038 m 346 1038 l 461 1038 l 461 692 l 346 692 l 346 1038 z "},"#":{"ha":694,"x_min":0,"x_max":576,"o":"m 115 922 l 231 922 l 231 692 l 346 692 l 346 922 l 461 922 l 461 692 l 576 692 l 576 576 l 461 576 l 461 461 l 576 461 l 576 346 l 461 346 l 461 115 l 346 115 l 346 346 l 231 346 l 231 115 l 115 115 l 115 346 l 0 346 l 0 461 l 115 461 l 115 576 l 0 576 l 0 692 l 115 692 l 115 922 m 231 576 l 231 461 l 346 461 l 346 576 l 231 576 z "},"$":{"ha":694,"x_min":0,"x_max":576,"o":"m 231 1038 l 346 1038 l 346 922 l 576 922 l 576 807 l 346 807 l 346 576 l 461 576 l 461 461 l 576 461 l 576 231 l 461 231 l 461 115 l 346 115 l 346 0 l 231 0 l 231 115 l 0 115 l 0 231 l 231 231 l 231 461 l 115 461 l 115 576 l 0 576 l 0 807 l 115 807 l 115 922 l 231 922 l 231 1038 m 115 807 l 115 576 l 231 576 l 231 807 l 115 807 m 346 461 l 346 231 l 461 231 l 461 461 l 346 461 z "},"%":{"ha":694,"x_min":0,"x_max":576,"o":"m 115 1038 l 231 1038 l 231 922 l 346 922 l 346 807 l 461 807 l 461 1038 l 576 1038 l 576 807 l 461 807 l 461 576 l 346 576 l 346 461 l 231 461 l 231 231 l 346 231 l 346 346 l 461 346 l 461 231 l 576 231 l 576 115 l 461 115 l 461 0 l 346 0 l 346 115 l 231 115 l 231 231 l 115 231 l 115 0 l 0 0 l 0 231 l 115 231 l 115 461 l 231 461 l 231 576 l 346 576 l 346 807 l 231 807 l 231 692 l 115 692 l 115 807 l 0 807 l 0 922 l 115 922 l 115 1038 m 115 922 l 115 807 l 231 807 l 231 922 l 115 922 m 346 231 l 346 115 l 461 115 l 461 231 l 346 231 z "},"&":{"ha":694,"x_min":0,"x_max":576,"o":"m 115 922 l 231 922 l 231 807 l 346 807 l 346 576 l 231 576 l 231 461 l 346 461 l 346 346 l 576 346 l 576 231 l 461 231 l 461 115 l 576 115 l 576 0 l 461 0 l 461 115 l 346 115 l 346 0 l 115 0 l 115 115 l 0 115 l 0 461 l 115 461 l 115 576 l 0 576 l 0 807 l 115 807 l 115 922 m 115 807 l 115 576 l 231 576 l 231 807 l 115 807 m 115 461 l 115 115 l 346 115 l 346 346 l 231 346 l 231 461 l 115 461 z "},"'":{"ha":694,"x_min":231,"x_max":346,"o":"m 231 1038 l 346 1038 l 346 692 l 231 692 l 231 1038 z "},"(":{"ha":694,"x_min":115,"x_max":461,"o":"m 346 1153 l 461 1153 l 461 1038 l 346 1038 l 346 807 l 231 807 l 231 231 l 346 231 l 346 0 l 461 0 l 461 -115 l 346 -115 l 346 0 l 231 0 l 231 231 l 115 231 l 115 807 l 231 807 l 231 1038 l 346 1038 l 346 1153 z "},")":{"ha":694,"x_min":115,"x_max":461,"o":"m 115 1153 l 231 1153 l 231 1038 l 346 1038 l 346 807 l 461 807 l 461 231 l 346 231 l 346 0 l 231 0 l 231 -115 l 115 -115 l 115 0 l 231 0 l 231 231 l 346 231 l 346 807 l 231 807 l 231 1038 l 115 1038 l 115 1153 z "},"*":{"ha":694,"x_min":0,"x_max":576,"o":"m 231 922 l 346 922 l 346 692 l 461 692 l 461 807 l 576 807 l 576 576 l 461 576 l 461 461 l 576 461 l 576 231 l 461 231 l 461 346 l 346 346 l 346 115 l 231 115 l 231 346 l 115 346 l 115 231 l 0 231 l 0 461 l 115 461 l 115 576 l 0 576 l 0 807 l 115 807 l 115 692 l 231 692 l 231 922 z "},"+":{"ha":694,"x_min":0,"x_max":576,"o":"m 231 807 l 346 807 l 346 576 l 576 576 l 576 461 l 346 461 l 346 231 l 231 231 l 231 461 l 0 461 l 0 576 l 231 576 l 231 807 z "},",":{"ha":694,"x_min":115,"x_max":461,"o":"m 231 231 l 461 231 l 461 115 l 346 115 l 346 0 l 231 0 l 231 -115 l 115 -115 l 115 0 l 231 0 l 231 231 z "},"-":{"ha":694,"x_min":0,"x_max":576,"o":"m 0 576 l 576 576 l 576 461 l 0 461 l 0 576 z "},".":{"ha":694,"x_min":115,"x_max":461,"o":"m 231 231 l 346 231 l 346 115 l 461 115 l 461 0 l 346 0 l 346 -115 l 231 -115 l 231 0 l 115 0 l 115 115 l 231 115 l 231 231 z "},"/":{"ha":694,"x_min":0,"x_max":576,"o":"m 461 1038 l 576 1038 l 576 807 l 461 807 l 461 576 l 346 576 l 346 461 l 231 461 l 231 231 l 115 231 l 115 0 l 0 0 l 0 231 l 115 231 l 115 461 l 231 461 l 231 576 l 346 576 l 346 807 l 461 807 l 461 1038 z "},":":{"ha":694,"x_min":115,"x_max":461,"o":"m 231 807 l 346 807 l 346 692 l 461 692 l 461 576 l 346 576 l 346 461 l 231 461 l 231 576 l 115 576 l 115 692 l 231 692 l 231 807 m 231 231 l 346 231 l 346 115 l 461 115 l 461 0 l 346 0 l 346 -115 l 231 -115 l 231 0 l 115 0 l 115 115 l 231 115 l 231 231 z "},";":{"ha":694,"x_min":115,"x_max":461,"o":"m 231 807 l 346 807 l 346 692 l 461 692 l 461 576 l 346 576 l 346 461 l 231 461 l 231 576 l 115 576 l 115 692 l 231 692 l 231 807 m 231 231 l 461 231 l 461 115 l 346 115 l 346 0 l 231 0 l 231 -115 l 115 -115 l 115 0 l 231 0 l 231 231 z "},"<":{"ha":694,"x_min":0,"x_max":576,"o":"m 461 1038 l 576 1038 l 576 922 l 461 922 l 461 807 l 346 807 l 346 692 l 231 692 l 231 576 l 115 576 l 115 461 l 231 461 l 231 346 l 346 346 l 346 231 l 461 231 l 461 115 l 576 115 l 576 0 l 461 0 l 461 115 l 346 115 l 346 231 l 231 231 l 231 346 l 115 346 l 115 461 l 0 461 l 0 576 l 115 576 l 115 692 l 231 692 l 231 807 l 346 807 l 346 922 l 461 922 l 461 1038 z "},"=":{"ha":694,"x_min":0,"x_max":576,"o":"m 0 692 l 576 692 l 576 576 l 0 576 l 0 692 m 0 346 l 576 346 l 576 231 l 0 231 l 0 346 z "},">":{"ha":694,"x_min":0,"x_max":576,"o":"m 0 1038 l 115 1038 l 115 922 l 231 922 l 231 807 l 346 807 l 346 692 l 461 692 l 461 576 l 576 576 l 576 461 l 461 461 l 461 346 l 346 346 l 346 231 l 231 231 l 231 115 l 115 115 l 115 0 l 0 0 l 0 115 l 115 115 l 115 231 l 231 231 l 231 346 l 346 346 l 346 461 l 461 461 l 461 576 l 346 576 l 346 692 l 231 692 l 231 807 l 115 807 l 115 922 l 0 922 l 0 1038 z "},"?":{"ha":694,"x_min":0,"x_max":576,"o":"m 115 1038 l 461 1038 l 461 922 l 576 922 l 576 576 l 461 576 l 461 461 l 346 461 l 346 231 l 231 231 l 231 461 l 346 461 l 346 576 l 461 576 l 461 922 l 115 922 l 115 692 l 0 692 l 0 922 l 115 922 l 115 1038 m 231 115 l 346 115 l 346 0 l 231 0 l 231 115 z "},"@":{"ha":694,"x_min":0,"x_max":576,"o":"m 115 1038 l 461 1038 l 461 922 l 576 922 l 576 346 l 461 346 l 461 231 l 231 231 l 231 576 l 346 576 l 346 692 l 461 692 l 461 922 l 115 922 l 115 115 l 576 115 l 576 0 l 115 0 l 115 115 l 0 115 l 0 922 l 115 922 l 115 1038 m 346 576 l 346 346 l 461 346 l 461 576 l 346 576 z "},"A":{"ha":694,"x_min":0,"x_max":576,"o":"m 231 1038 l 346 1038 l 346 922 l 461 922 l 461 807 l 576 807 l 576 0 l 461 0 l 461 346 l 115 346 l 115 0 l 0 0 l 0 807 l 115 807 l 115 922 l 231 922 l 231 1038 m 231 922 l 231 807 l 115 807 l 115 461 l 461 461 l 461 807 l 346 807 l 346 922 l 231 922 z "},"B":{"ha":694,"x_min":0,"x_max":576,"o":"m 0 1038 l 461 1038 l 461 922 l 576 922 l 576 576 l 461 576 l 461 461 l 576 461 l 576 115 l 461 115 l 461 0 l 0 0 l 0 115 l 115 115 l 115 922 l 0 922 l 0 1038 m 231 922 l 231 576 l 461 576 l 461 922 l 231 922 m 231 461 l 231 115 l 461 115 l 461 461 l 231 461 z "},"C":{"ha":694,"x_min":0,"x_max":576,"o":"m 115 1038 l 461 1038 l 461 922 l 576 922 l 576 807 l 461 807 l 461 922 l 115 922 l 115 115 l 461 115 l 461 231 l 576 231 l 576 115 l 461 115 l 461 0 l 115 0 l 115 115 l 0 115 l 0 922 l 115 922 l 115 1038 z "},"D":{"ha":694,"x_min":0,"x_max":576,"o":"m 0 1038 l 461 1038 l 461 922 l 576 922 l 576 115 l 461 115 l 461 0 l 0 0 l 0 115 l 115 115 l 115 922 l 0 922 l 0 1038 m 231 922 l 231 115 l 461 115 l 461 922 l 231 922 z "},"E":{"ha":694,"x_min":0,"x_max":576,"o":"m 0 1038 l 576 1038 l 576 922 l 115 922 l 115 576 l 461 576 l 461 461 l 115 461 l 115 115 l 576 115 l 576 0 l 0 0 l 0 1038 z "},"F":{"ha":694,"x_min":0,"x_max":576,"o":"m 0 1038 l 576 1038 l 576 922 l 115 922 l 115 576 l 461 576 l 461 461 l 115 461 l 115 0 l 0 0 l 0 1038 z "},"G":{"ha":694,"x_min":0,"x_max":576,"o":"m 115 1038 l 461 1038 l 461 922 l 576 922 l 576 807 l 461 807 l 461 922 l 115 922 l 115 115 l 461 115 l 461 346 l 346 346 l 346 461 l 576 461 l 576 115 l 461 115 l 461 0 l 115 0 l 115 115 l 0 115 l 0 922 l 115 922 l 115 1038 z "},"H":{"ha":694,"x_min":0,"x_max":576,"o":"m 0 1038 l 115 1038 l 115 576 l 461 576 l 461 1038 l 576 1038 l 576 0 l 461 0 l 461 461 l 115 461 l 115 0 l 0 0 l 0 1038 z "},"I":{"ha":694,"x_min":115,"x_max":461,"o":"m 115 1038 l 461 1038 l 461 922 l 346 922 l 346 115 l 461 115 l 461 0 l 115 0 l 115 115 l 231 115 l 231 922 l 115 922 l 115 1038 z "},"J":{"ha":694,"x_min":0,"x_max":576,"o":"m 231 1038 l 576 1038 l 576 922 l 461 922 l 461 115 l 346 115 l 346 0 l 115 0 l 115 115 l 0 115 l 0 231 l 115 231 l 115 115 l 346 115 l 346 922 l 231 922 l 231 1038 z "},"K":{"ha":694,"x_min":0,"x_max":576,"o":"m 0 1038 l 115 1038 l 115 576 l 231 576 l 231 692 l 346 692 l 346 807 l 461 807 l 461 1038 l 576 1038 l 576 807 l 461 807 l 461 692 l 346 692 l 346 576 l 231 576 l 231 461 l 346 461 l 346 346 l 461 346 l 461 231 l 576 231 l 576 0 l 461 0 l 461 231 l 346 231 l 346 346 l 231 346 l 231 461 l 115 461 l 115 0 l 0 0 l 0 1038 z "},"L":{"ha":694,"x_min":0,"x_max":576,"o":"m 0 1038 l 115 1038 l 115 115 l 576 115 l 576 0 l 0 0 l 0 1038 z "},"M":{"ha":694,"x_min":0,"x_max":576,"o":"m 0 1038 l 115 1038 l 115 807 l 231 807 l 231 692 l 346 692 l 346 807 l 461 807 l 461 1038 l 576 1038 l 576 0 l 461 0 l 461 692 l 346 692 l 346 461 l 231 461 l 231 692 l 115 692 l 115 0 l 0 0 l 0 1038 z "},"N":{"ha":694,"x_min":0,"x_max":576,"o":"m 0 1038 l 115 1038 l 115 922 l 231 922 l 231 692 l 346 692 l 346 461 l 461 461 l 461 1038 l 576 1038 l 576 0 l 461 0 l 461 231 l 346 231 l 346 461 l 231 461 l 231 692 l 115 692 l 115 0 l 0 0 l 0 1038 z "},"O":{"ha":694,"x_min":0,"x_max":576,"o":"m 115 1038 l 461 1038 l 461 922 l 576 922 l 576 115 l 461 115 l 461 0 l 115 0 l 115 115 l 0 115 l 0 922 l 115 922 l 115 1038 m 115 922 l 115 115 l 461 115 l 461 922 l 115 922 z "},"P":{"ha":694,"x_min":0,"x_max":576,"o":"m 0 1038 l 461 1038 l 461 922 l 576 922 l 576 576 l 461 576 l 461 461 l 115 461 l 115 0 l 0 0 l 0 1038 m 115 922 l 115 576 l 461 576 l 461 922 l 115 922 z "},"Q":{"ha":694,"x_min":0,"x_max":576,"o":"m 115 1038 l 461 1038 l 461 922 l 576 922 l 576 115 l 461 115 l 461 0 l 576 0 l 576 -115 l 461 -115 l 461 0 l 115 0 l 115 115 l 0 115 l 0 922 l 115 922 l 115 1038 m 115 922 l 115 115 l 231 115 l 231 231 l 346 231 l 346 115 l 461 115 l 461 922 l 115 922 z "},"R":{"ha":694,"x_min":0,"x_max":576,"o":"m 0 1038 l 461 1038 l 461 922 l 576 922 l 576 576 l 461 576 l 461 461 l 346 461 l 346 346 l 461 346 l 461 231 l 576 231 l 576 0 l 461 0 l 461 231 l 346 231 l 346 346 l 231 346 l 231 461 l 115 461 l 115 0 l 0 0 l 0 1038 m 115 922 l 115 576 l 461 576 l 461 922 l 115 922 z "},"S":{"ha":694,"x_min":0,"x_max":576,"o":"m 115 1038 l 461 1038 l 461 922 l 576 922 l 576 807 l 461 807 l 461 922 l 115 922 l 115 576 l 461 576 l 461 461 l 576 461 l 576 115 l 461 115 l 461 0 l 115 0 l 115 115 l 0 115 l 0 231 l 115 231 l 115 115 l 461 115 l 461 461 l 115 461 l 115 576 l 0 576 l 0 922 l 115 922 l 115 1038 z "},"T":{"ha":694,"x_min":0,"x_max":576,"o":"m 0 1038 l 576 1038 l 576 922 l 346 922 l 346 0 l 231 0 l 231 922 l 0 922 l 0 1038 z "},"U":{"ha":694,"x_min":0,"x_max":576,"o":"m 0 1038 l 115 1038 l 115 115 l 461 115 l 461 1038 l 576 1038 l 576 115 l 461 115 l 461 0 l 115 0 l 115 115 l 0 115 l 0 1038 z "},"V":{"ha":694,"x_min":0,"x_max":576,"o":"m 0 1038 l 115 1038 l 115 576 l 231 576 l 231 231 l 346 231 l 346 576 l 461 576 l 461 1038 l 576 1038 l 576 576 l 461 576 l 461 231 l 346 231 l 346 0 l 231 0 l 231 231 l 115 231 l 115 576 l 0 576 l 0 1038 z "},"W":{"ha":694,"x_min":0,"x_max":576,"o":"m 0 1038 l 115 1038 l 115 115 l 231 115 l 231 576 l 346 576 l 346 115 l 461 115 l 461 1038 l 576 1038 l 576 115 l 461 115 l 461 0 l 346 0 l 346 115 l 231 115 l 231 0 l 115 0 l 115 115 l 0 115 l 0 1038 z "},"X":{"ha":694,"x_min":0,"x_max":576,"o":"m 0 1038 l 115 1038 l 115 807 l 231 807 l 231 576 l 346 576 l 346 807 l 461 807 l 461 1038 l 576 1038 l 576 807 l 461 807 l 461 576 l 346 576 l 346 461 l 461 461 l 461 231 l 576 231 l 576 0 l 461 0 l 461 231 l 346 231 l 346 461 l 231 461 l 231 231 l 115 231 l 115 0 l 0 0 l 0 231 l 115 231 l 115 461 l 231 461 l 231 576 l 115 576 l 115 807 l 0 807 l 0 1038 z "},"Y":{"ha":694,"x_min":0,"x_max":576,"o":"m 0 1038 l 115 1038 l 115 807 l 231 807 l 231 576 l 346 576 l 346 807 l 461 807 l 461 1038 l 576 1038 l 576 807 l 461 807 l 461 576 l 346 576 l 346 0 l 231 0 l 231 576 l 115 576 l 115 807 l 0 807 l 0 1038 z "},"Z":{"ha":694,"x_min":0,"x_max":576,"o":"m 0 1038 l 576 1038 l 576 807 l 461 807 l 461 576 l 346 576 l 346 461 l 231 461 l 231 231 l 115 231 l 115 115 l 576 115 l 576 0 l 0 0 l 0 231 l 115 231 l 115 461 l 231 461 l 231 576 l 346 576 l 346 807 l 461 807 l 461 922 l 0 922 l 0 1038 z "},"[":{"ha":694,"x_min":115,"x_max":461,"o":"m 115 1153 l 461 1153 l 461 1038 l 231 1038 l 231 0 l 461 0 l 461 -115 l 115 -115 l 115 1153 z "},"\\":{"ha":694,"x_min":0,"x_max":576,"o":"m 0 1038 l 115 1038 l 115 807 l 231 807 l 231 576 l 346 576 l 346 461 l 461 461 l 461 231 l 576 231 l 576 0 l 461 0 l 461 231 l 346 231 l 346 461 l 231 461 l 231 576 l 115 576 l 115 807 l 0 807 l 0 1038 z "},"]":{"ha":694,"x_min":115,"x_max":461,"o":"m 115 1153 l 461 1153 l 461 -115 l 115 -115 l 115 0 l 346 0 l 346 1038 l 115 1038 l 115 1153 z "},"^":{"ha":694,"x_min":0,"x_max":576,"o":"m 231 1038 l 346 1038 l 346 922 l 461 922 l 461 807 l 576 807 l 576 692 l 461 692 l 461 807 l 346 807 l 346 922 l 231 922 l 231 807 l 115 807 l 115 692 l 0 692 l 0 807 l 115 807 l 115 922 l 231 922 l 231 1038 z "},"_":{"ha":694,"x_min":0,"x_max":576,"o":"m 0 0 l 576 0 l 576 -115 l 0 -115 l 0 0 z "},"`":{"ha":694,"x_min":231,"x_max":461,"o":"m 231 1153 l 346 1153 l 346 1038 l 461 1038 l 461 922 l 346 922 l 346 1038 l 231 1038 l 231 1153 z "},"a":{"ha":694,"x_min":0,"x_max":576,"o":"m 115 692 l 461 692 l 461 576 l 576 576 l 576 0 l 461 0 l 461 115 l 346 115 l 346 0 l 115 0 l 115 115 l 0 115 l 0 346 l 115 346 l 115 461 l 461 461 l 461 576 l 115 576 l 115 692 m 115 346 l 115 115 l 346 115 l 346 231 l 461 231 l 461 346 l 115 346 z "},"b":{"ha":694,"x_min":0,"x_max":576,"o":"m 0 1038 l 115 1038 l 115 692 l 461 692 l 461 576 l 576 576 l 576 115 l 461 115 l 461 0 l 0 0 l 0 1038 m 115 576 l 115 115 l 461 115 l 461 576 l 115 576 z "},"c":{"ha":694,"x_min":0,"x_max":576,"o":"m 115 692 l 461 692 l 461 576 l 576 576 l 576 461 l 461 461 l 461 576 l 115 576 l 115 115 l 461 115 l 461 231 l 576 231 l 576 115 l 461 115 l 461 0 l 115 0 l 115 115 l 0 115 l 0 576 l 115 576 l 115 692 z "},"d":{"ha":694,"x_min":0,"x_max":576,"o":"m 461 1038 l 576 1038 l 576 0 l 115 0 l 115 115 l 0 115 l 0 576 l 115 576 l 115 692 l 461 692 l 461 1038 m 115 576 l 115 115 l 461 115 l 461 576 l 115 576 z "},"e":{"ha":694,"x_min":0,"x_max":576,"o":"m 115 692 l 461 692 l 461 576 l 576 576 l 576 346 l 115 346 l 115 115 l 461 115 l 461 231 l 576 231 l 576 115 l 461 115 l 461 0 l 115 0 l 115 115 l 0 115 l 0 576 l 115 576 l 115 692 m 115 576 l 115 461 l 461 461 l 461 576 l 115 576 z "},"f":{"ha":694,"x_min":0,"x_max":576,"o":"m 231 1038 l 461 1038 l 461 922 l 576 922 l 576 807 l 461 807 l 461 922 l 231 922 l 231 576 l 461 576 l 461 461 l 231 461 l 231 0 l 115 0 l 115 461 l 0 461 l 0 576 l 115 576 l 115 922 l 231 922 l 231 1038 z "},"g":{"ha":694,"x_min":0,"x_max":576,"o":"m 115 692 l 461 692 l 461 576 l 576 576 l 576 -115 l 461 -115 l 461 -231 l 115 -231 l 115 -115 l 0 -115 l 0 0 l 115 0 l 115 -115 l 461 -115 l 461 115 l 115 115 l 115 231 l 0 231 l 0 576 l 115 576 l 115 692 m 115 576 l 115 231 l 461 231 l 461 576 l 115 576 z "},"h":{"ha":694,"x_min":0,"x_max":576,"o":"m 0 1038 l 115 1038 l 115 576 l 231 576 l 231 692 l 461 692 l 461 576 l 576 576 l 576 0 l 461 0 l 461 576 l 231 576 l 231 461 l 115 461 l 115 0 l 0 0 l 0 1038 z "},"i":{"ha":694,"x_min":115,"x_max":461,"o":"m 231 922 l 346 922 l 346 807 l 231 807 l 231 922 m 115 692 l 346 692 l 346 115 l 461 115 l 461 0 l 115 0 l 115 115 l 231 115 l 231 576 l 115 576 l 115 692 z "},"j":{"ha":694,"x_min":0,"x_max":461,"o":"m 346 922 l 461 922 l 461 807 l 346 807 l 346 922 m 231 692 l 461 692 l 461 -115 l 346 -115 l 346 -231 l 115 -231 l 115 -115 l 0 -115 l 0 115 l 115 115 l 115 -115 l 346 -115 l 346 576 l 231 576 l 231 692 z "},"k":{"ha":694,"x_min":0,"x_max":576,"o":"m 0 1038 l 115 1038 l 115 461 l 231 461 l 231 576 l 346 576 l 346 692 l 461 692 l 461 576 l 346 576 l 346 461 l 231 461 l 231 346 l 346 346 l 346 231 l 461 231 l 461 115 l 576 115 l 576 0 l 461 0 l 461 115 l 346 115 l 346 231 l 231 231 l 231 346 l 115 346 l 115 0 l 0 0 l 0 1038 z "},"l":{"ha":694,"x_min":115,"x_max":461,"o":"m 115 1038 l 346 1038 l 346 115 l 461 115 l 461 0 l 115 0 l 115 115 l 231 115 l 231 922 l 115 922 l 115 1038 z "},"m":{"ha":694,"x_min":0,"x_max":576,"o":"m 0 692 l 231 692 l 231 576 l 346 576 l 346 692 l 461 692 l 461 576 l 576 576 l 576 0 l 461 0 l 461 576 l 346 576 l 346 115 l 231 115 l 231 576 l 115 576 l 115 0 l 0 0 l 0 692 z "},"n":{"ha":694,"x_min":0,"x_max":576,"o":"m 0 692 l 115 692 l 115 576 l 231 576 l 231 692 l 461 692 l 461 576 l 576 576 l 576 0 l 461 0 l 461 576 l 231 576 l 231 461 l 115 461 l 115 0 l 0 0 l 0 692 z "},"o":{"ha":694,"x_min":0,"x_max":576,"o":"m 115 692 l 461 692 l 461 576 l 576 576 l 576 115 l 461 115 l 461 0 l 115 0 l 115 115 l 0 115 l 0 576 l 115 576 l 115 692 m 115 576 l 115 115 l 461 115 l 461 576 l 115 576 z "},"p":{"ha":694,"x_min":0,"x_max":576,"o":"m 0 692 l 461 692 l 461 576 l 576 576 l 576 231 l 461 231 l 461 115 l 115 115 l 115 -231 l 0 -231 l 0 692 m 115 576 l 115 231 l 461 231 l 461 576 l 115 576 z "},"q":{"ha":694,"x_min":0,"x_max":576,"o":"m 115 692 l 576 692 l 576 -231 l 461 -231 l 461 115 l 115 115 l 115 231 l 0 231 l 0 576 l 115 576 l 115 692 m 115 576 l 115 231 l 461 231 l 461 576 l 115 576 z "},"r":{"ha":694,"x_min":0,"x_max":576,"o":"m 0 692 l 115 692 l 115 576 l 231 576 l 231 692 l 461 692 l 461 576 l 576 576 l 576 461 l 461 461 l 461 576 l 231 576 l 231 461 l 115 461 l 115 0 l 0 0 l 0 692 z "},"s":{"ha":694,"x_min":0,"x_max":576,"o":"m 115 692 l 461 692 l 461 576 l 576 576 l 576 461 l 461 461 l 461 576 l 115 576 l 115 461 l 346 461 l 346 346 l 461 346 l 461 231 l 576 231 l 576 115 l 461 115 l 461 0 l 115 0 l 115 115 l 0 115 l 0 231 l 115 231 l 115 115 l 461 115 l 461 231 l 346 231 l 346 346 l 115 346 l 115 461 l 0 461 l 0 576 l 115 576 l 115 692 z "},"t":{"ha":694,"x_min":0,"x_max":576,"o":"m 115 922 l 231 922 l 231 692 l 461 692 l 461 576 l 231 576 l 231 115 l 461 115 l 461 231 l 576 231 l 576 115 l 461 115 l 461 0 l 231 0 l 231 115 l 115 115 l 115 576 l 0 576 l 0 692 l 115 692 l 115 922 z "},"u":{"ha":694,"x_min":0,"x_max":576,"o":"m 0 692 l 115 692 l 115 115 l 346 115 l 346 231 l 461 231 l 461 692 l 576 692 l 576 0 l 461 0 l 461 115 l 346 115 l 346 0 l 115 0 l 115 115 l 0 115 l 0 692 z "},"v":{"ha":694,"x_min":0,"x_max":576,"o":"m 0 692 l 115 692 l 115 346 l 231 346 l 231 115 l 346 115 l 346 346 l 461 346 l 461 692 l 576 692 l 576 346 l 461 346 l 461 115 l 346 115 l 346 0 l 231 0 l 231 115 l 115 115 l 115 346 l 0 346 l 0 692 z "},"w":{"ha":694,"x_min":0,"x_max":576,"o":"m 0 692 l 115 692 l 115 115 l 231 115 l 231 461 l 346 461 l 346 115 l 461 115 l 461 692 l 576 692 l 576 115 l 461 115 l 461 0 l 346 0 l 346 115 l 231 115 l 231 0 l 115 0 l 115 115 l 0 115 l 0 692 z "},"x":{"ha":694,"x_min":0,"x_max":576,"o":"m 0 692 l 115 692 l 115 576 l 231 576 l 231 461 l 346 461 l 346 576 l 461 576 l 461 692 l 576 692 l 576 576 l 461 576 l 461 461 l 346 461 l 346 231 l 461 231 l 461 115 l 576 115 l 576 0 l 461 0 l 461 115 l 346 115 l 346 231 l 231 231 l 231 115 l 115 115 l 115 0 l 0 0 l 0 115 l 115 115 l 115 231 l 231 231 l 231 461 l 115 461 l 115 576 l 0 576 l 0 692 z "},"y":{"ha":694,"x_min":0,"x_max":576,"o":"m 0 692 l 115 692 l 115 231 l 346 231 l 346 346 l 461 346 l 461 692 l 576 692 l 576 -115 l 461 -115 l 461 -231 l 115 -231 l 115 -115 l 0 -115 l 0 0 l 115 0 l 115 -115 l 461 -115 l 461 231 l 346 231 l 346 115 l 115 115 l 115 231 l 0 231 l 0 692 z "},"z":{"ha":694,"x_min":0,"x_max":576,"o":"m 0 692 l 576 692 l 576 576 l 461 576 l 461 461 l 346 461 l 346 346 l 231 346 l 231 231 l 115 231 l 115 115 l 576 115 l 576 0 l 0 0 l 0 231 l 115 231 l 115 346 l 231 346 l 231 461 l 346 461 l 346 576 l 0 576 l 0 692 z "},"{":{"ha":694,"x_min":0,"x_max":576,"o":"m 346 1153 l 576 1153 l 576 1038 l 346 1038 l 346 576 l 231 576 l 231 461 l 346 461 l 346 0 l 576 0 l 576 -115 l 346 -115 l 346 0 l 231 0 l 231 461 l 0 461 l 0 576 l 231 576 l 231 1038 l 346 1038 l 346 1153 z "},"|":{"ha":694,"x_min":231,"x_max":346,"o":"m 231 1038 l 346 1038 l 346 0 l 231 0 l 231 1038 z "},"}":{"ha":694,"x_min":0,"x_max":576,"o":"m 0 1153 l 231 1153 l 231 1038 l 346 1038 l 346 576 l 576 576 l 576 461 l 346 461 l 346 0 l 231 0 l 231 -115 l 0 -115 l 0 0 l 231 0 l 231 461 l 346 461 l 346 576 l 231 576 l 231 1038 l 0 1038 l 0 1153 z "},"~":{"ha":694,"x_min":0,"x_max":576,"o":"m 115 1038 l 231 1038 l 231 922 l 346 922 l 346 807 l 461 807 l 461 1038 l 576 1038 l 576 807 l 461 807 l 461 692 l 346 692 l 346 807 l 231 807 l 231 922 l 115 922 l 115 692 l 0 692 l 0 922 l 115 922 l 115 1038 z "},"¡":{"ha":694,"x_min":231,"x_max":346,"o":"m 231 1038 l 346 1038 l 346 922 l 231 922 l 231 1038 m 231 807 l 346 807 l 346 0 l 231 0 l 231 807 z "},"¢":{"ha":694,"x_min":0,"x_max":576,"o":"m 231 1038 l 346 1038 l 346 922 l 461 922 l 461 807 l 576 807 l 576 692 l 461 692 l 461 807 l 346 807 l 346 346 l 461 346 l 461 461 l 576 461 l 576 346 l 461 346 l 461 231 l 346 231 l 346 115 l 231 115 l 231 231 l 115 231 l 115 346 l 0 346 l 0 807 l 115 807 l 115 922 l 231 922 l 231 1038 m 115 807 l 115 346 l 231 346 l 231 807 l 115 807 z "},"£":{"ha":694,"x_min":0,"x_max":576,"o":"m 231 1038 l 461 1038 l 461 922 l 576 922 l 576 807 l 461 807 l 461 922 l 231 922 l 231 576 l 346 576 l 346 461 l 231 461 l 231 115 l 461 115 l 461 231 l 576 231 l 576 115 l 461 115 l 461 0 l 231 0 l 231 115 l 115 115 l 115 0 l 0 0 l 0 115 l 115 115 l 115 461 l 0 461 l 0 576 l 115 576 l 115 922 l 231 922 l 231 1038 z "},"¤":{"ha":694,"x_min":0,"x_max":576,"o":"m 0 807 l 115 807 l 115 692 l 461 692 l 461 807 l 576 807 l 576 692 l 461 692 l 461 231 l 576 231 l 576 115 l 461 115 l 461 231 l 115 231 l 115 115 l 0 115 l 0 231 l 115 231 l 115 692 l 0 692 l 0 807 m 231 576 l 231 346 l 346 346 l 346 576 l 231 576 z "},"¥":{"ha":694,"x_min":0,"x_max":576,"o":"m 0 1038 l 115 1038 l 115 807 l 231 807 l 231 576 l 346 576 l 346 807 l 461 807 l 461 1038 l 576 1038 l 576 807 l 461 807 l 461 576 l 576 576 l 576 461 l 346 461 l 346 346 l 576 346 l 576 231 l 346 231 l 346 0 l 231 0 l 231 231 l 0 231 l 0 346 l 231 346 l 231 461 l 0 461 l 0 576 l 115 576 l 115 807 l 0 807 l 0 1038 z "},"¦":{"ha":694,"x_min":231,"x_max":346,"o":"m 231 1038 l 346 1038 l 346 576 l 231 576 l 231 1038 m 231 461 l 346 461 l 346 0 l 231 0 l 231 461 z "},"§":{"ha":694,"x_min":115,"x_max":576,"o":"m 231 1153 l 461 1153 l 461 1038 l 576 1038 l 576 922 l 461 922 l 461 1038 l 231 1038 l 231 807 l 461 807 l 461 692 l 576 692 l 576 461 l 461 461 l 461 346 l 576 346 l 576 115 l 461 115 l 461 0 l 231 0 l 231 115 l 115 115 l 115 231 l 231 231 l 231 115 l 461 115 l 461 346 l 231 346 l 231 461 l 115 461 l 115 692 l 231 692 l 231 807 l 115 807 l 115 1038 l 231 1038 l 231 1153 m 231 692 l 231 461 l 461 461 l 461 692 l 231 692 z "},"¨":{"ha":694,"x_min":115,"x_max":461,"o":"m 115 1153 l 231 1153 l 231 922 l 115 922 l 115 1153 m 346 1153 l 461 1153 l 461 922 l 346 922 l 346 1153 z "},"©":{"ha":694,"x_min":0,"x_max":576,"o":"m 115 1153 l 461 1153 l 461 1038 l 576 1038 l 576 231 l 461 231 l 461 115 l 115 115 l 115 231 l 0 231 l 0 1038 l 115 1038 l 115 1153 m 115 1038 l 115 807 l 231 807 l 231 461 l 115 461 l 115 231 l 461 231 l 461 461 l 346 461 l 346 576 l 461 576 l 461 692 l 346 692 l 346 807 l 461 807 l 461 1038 l 115 1038 m 231 922 l 346 922 l 346 807 l 231 807 l 231 922 m 231 461 l 346 461 l 346 346 l 231 346 l 231 461 z "},"ª":{"ha":694,"x_min":0,"x_max":576,"o":"m 115 1038 l 461 1038 l 461 922 l 576 922 l 576 461 l 115 461 l 115 576 l 0 576 l 0 692 l 115 692 l 115 807 l 461 807 l 461 922 l 115 922 l 115 1038 m 115 692 l 115 576 l 461 576 l 461 692 l 115 692 m 0 346 l 576 346 l 576 231 l 0 231 l 0 346 z "},"«":{"ha":694,"x_min":0,"x_max":576,"o":"m 231 807 l 346 807 l 346 692 l 461 692 l 461 807 l 576 807 l 576 692 l 461 692 l 461 576 l 346 576 l 346 346 l 461 346 l 461 231 l 576 231 l 576 115 l 461 115 l 461 231 l 346 231 l 346 115 l 231 115 l 231 231 l 115 231 l 115 346 l 0 346 l 0 576 l 115 576 l 115 692 l 231 692 l 231 807 m 231 692 l 231 576 l 115 576 l 115 346 l 231 346 l 231 231 l 346 231 l 346 346 l 231 346 l 231 576 l 346 576 l 346 692 l 231 692 z "},"¬":{"ha":694,"x_min":0,"x_max":576,"o":"m 0 576 l 576 576 l 576 231 l 461 231 l 461 461 l 0 461 l 0 576 z "},"®":{"ha":694,"x_min":0,"x_max":576,"o":"m 115 1153 l 461 1153 l 461 1038 l 576 1038 l 576 231 l 461 231 l 461 115 l 115 115 l 115 231 l 0 231 l 0 1038 l 115 1038 l 115 1153 m 115 1038 l 115 922 l 346 922 l 346 807 l 231 807 l 231 576 l 346 576 l 346 461 l 231 461 l 231 346 l 115 346 l 115 231 l 461 231 l 461 346 l 346 346 l 346 461 l 461 461 l 461 576 l 346 576 l 346 807 l 461 807 l 461 1038 l 115 1038 z "},"¯":{"ha":694,"x_min":0,"x_max":576,"o":"m 0 1038 l 576 1038 l 576 922 l 0 922 l 0 1038 z "},"°":{"ha":694,"x_min":115,"x_max":576,"o":"m 231 1038 l 461 1038 l 461 922 l 576 922 l 576 692 l 461 692 l 461 576 l 231 576 l 231 692 l 115 692 l 115 922 l 231 922 l 231 1038 m 231 922 l 231 692 l 461 692 l 461 922 l 231 922 z "},"±":{"ha":694,"x_min":0,"x_max":576,"o":"m 231 922 l 346 922 l 346 692 l 576 692 l 576 576 l 346 576 l 346 346 l 231 346 l 231 576 l 0 576 l 0 692 l 231 692 l 231 922 m 0 231 l 576 231 l 576 115 l 0 115 l 0 231 z "},"²":{"ha":694,"x_min":0,"x_max":346,"o":"m 115 1153 l 231 1153 l 231 1038 l 346 1038 l 346 807 l 231 807 l 231 692 l 346 692 l 346 576 l 0 576 l 0 692 l 115 692 l 115 807 l 231 807 l 231 1038 l 115 1038 l 115 922 l 0 922 l 0 1038 l 115 1038 l 115 1153 z "},"³":{"ha":694,"x_min":0,"x_max":346,"o":"m 115 1153 l 231 1153 l 231 1038 l 346 1038 l 346 922 l 231 922 l 231 807 l 346 807 l 346 692 l 231 692 l 231 576 l 0 576 l 0 692 l 231 692 l 231 807 l 115 807 l 115 922 l 0 922 l 0 1038 l 115 1038 l 115 1153 m 115 1038 l 115 922 l 231 922 l 231 1038 l 115 1038 z "},"´":{"ha":694,"x_min":231,"x_max":461,"o":"m 346 1153 l 461 1153 l 461 1038 l 346 1038 l 346 922 l 231 922 l 231 1038 l 346 1038 l 346 1153 z "},"¶":{"ha":694,"x_min":0,"x_max":576,"o":"m 115 1038 l 576 1038 l 576 0 l 461 0 l 461 922 l 346 922 l 346 0 l 231 0 l 231 346 l 115 346 l 115 461 l 0 461 l 0 922 l 115 922 l 115 1038 z "},"·":{"ha":694,"x_min":231,"x_max":461,"o":"m 231 576 l 461 576 l 461 461 l 231 461 l 231 576 z "},"¸":{"ha":694,"x_min":231,"x_max":461,"o":"m 346 0 l 461 0 l 461 -115 l 346 -115 l 346 -231 l 231 -231 l 231 -115 l 346 -115 l 346 0 z "},"¹":{"ha":694,"x_min":0,"x_max":346,"o":"m 115 1153 l 231 1153 l 231 692 l 346 692 l 346 576 l 0 576 l 0 692 l 115 692 l 115 922 l 0 922 l 0 1038 l 115 1038 l 115 1153 z "},"º":{"ha":694,"x_min":0,"x_max":576,"o":"m 115 1038 l 461 1038 l 461 922 l 576 922 l 576 576 l 461 576 l 461 461 l 115 461 l 115 576 l 0 576 l 0 922 l 115 922 l 115 1038 m 115 922 l 115 576 l 461 576 l 461 922 l 115 922 m 0 346 l 576 346 l 576 231 l 0 231 l 0 346 z "},"»":{"ha":694,"x_min":0,"x_max":576,"o":"m 0 807 l 115 807 l 115 692 l 231 692 l 231 807 l 346 807 l 346 692 l 461 692 l 461 576 l 576 576 l 576 346 l 461 346 l 461 231 l 346 231 l 346 115 l 231 115 l 231 231 l 115 231 l 115 115 l 0 115 l 0 231 l 115 231 l 115 346 l 231 346 l 231 576 l 115 576 l 115 692 l 0 692 l 0 807 m 231 692 l 231 576 l 346 576 l 346 346 l 231 346 l 231 231 l 346 231 l 346 346 l 461 346 l 461 576 l 346 576 l 346 692 l 231 692 z "},"¼":{"ha":694,"x_min":0,"x_max":576,"o":"m 115 1153 l 231 1153 l 231 692 l 346 692 l 346 576 l 0 576 l 0 692 l 115 692 l 115 922 l 0 922 l 0 1038 l 115 1038 l 115 1153 m 461 576 l 576 576 l 576 0 l 461 0 l 461 115 l 231 115 l 231 346 l 346 346 l 346 461 l 461 461 l 461 576 m 346 346 l 346 231 l 461 231 l 461 346 l 346 346 z "},"½":{"ha":694,"x_min":0,"x_max":576,"o":"m 115 1153 l 231 1153 l 231 692 l 346 692 l 346 576 l 461 576 l 461 461 l 576 461 l 576 231 l 461 231 l 461 115 l 576 115 l 576 0 l 231 0 l 231 115 l 346 115 l 346 231 l 461 231 l 461 461 l 346 461 l 346 346 l 231 346 l 231 461 l 346 461 l 346 576 l 0 576 l 0 692 l 115 692 l 115 922 l 0 922 l 0 1038 l 115 1038 l 115 1153 z "},"¾":{"ha":694,"x_min":0,"x_max":576,"o":"m 115 1153 l 231 1153 l 231 1038 l 346 1038 l 346 922 l 231 922 l 231 807 l 346 807 l 346 576 l 231 576 l 231 461 l 115 461 l 115 576 l 0 576 l 0 692 l 115 692 l 115 576 l 231 576 l 231 807 l 115 807 l 115 922 l 0 922 l 0 1038 l 115 1038 l 115 1153 m 115 1038 l 115 922 l 231 922 l 231 1038 l 115 1038 m 461 576 l 576 576 l 576 0 l 461 0 l 461 115 l 231 115 l 231 346 l 346 346 l 346 461 l 461 461 l 461 576 m 346 346 l 346 231 l 461 231 l 461 346 l 346 346 z "},"¿":{"ha":694,"x_min":0,"x_max":576,"o":"m 231 1038 l 346 1038 l 346 922 l 231 922 l 231 1038 m 231 807 l 346 807 l 346 576 l 231 576 l 231 461 l 115 461 l 115 115 l 461 115 l 461 346 l 576 346 l 576 115 l 461 115 l 461 0 l 115 0 l 115 115 l 0 115 l 0 461 l 115 461 l 115 576 l 231 576 l 231 807 z "},"À":{"ha":694,"x_min":0,"x_max":576,"o":"m 115 1153 l 231 1153 l 231 1038 l 346 1038 l 346 922 l 231 922 l 231 1038 l 115 1038 l 115 1153 m 231 807 l 346 807 l 346 692 l 461 692 l 461 576 l 576 576 l 576 0 l 461 0 l 461 231 l 115 231 l 115 0 l 0 0 l 0 576 l 115 576 l 115 692 l 231 692 l 231 807 m 231 692 l 231 576 l 115 576 l 115 346 l 461 346 l 461 576 l 346 576 l 346 692 l 231 692 z "},"Á":{"ha":694,"x_min":0,"x_max":576,"o":"m 346 1153 l 461 1153 l 461 1038 l 346 1038 l 346 922 l 231 922 l 231 1038 l 346 1038 l 346 1153 m 231 807 l 346 807 l 346 692 l 461 692 l 461 576 l 576 576 l 576 0 l 461 0 l 461 231 l 115 231 l 115 0 l 0 0 l 0 576 l 115 576 l 115 692 l 231 692 l 231 807 m 231 692 l 231 576 l 115 576 l 115 346 l 461 346 l 461 576 l 346 576 l 346 692 l 231 692 z "},"Â":{"ha":694,"x_min":0,"x_max":576,"o":"m 231 1153 l 461 1153 l 461 1038 l 576 1038 l 576 922 l 461 922 l 461 1038 l 231 1038 l 231 922 l 115 922 l 115 1038 l 231 1038 l 231 1153 m 231 807 l 346 807 l 346 692 l 461 692 l 461 576 l 576 576 l 576 0 l 461 0 l 461 231 l 115 231 l 115 0 l 0 0 l 0 576 l 115 576 l 115 692 l 231 692 l 231 807 m 231 692 l 231 576 l 115 576 l 115 346 l 461 346 l 461 576 l 346 576 l 346 692 l 231 692 z "},"Ã":{"ha":694,"x_min":0,"x_max":576,"o":"m 231 1153 l 346 1153 l 346 1038 l 461 1038 l 461 1153 l 576 1153 l 576 1038 l 461 1038 l 461 922 l 346 922 l 346 1038 l 231 1038 l 231 922 l 115 922 l 115 1038 l 231 1038 l 231 1153 m 231 807 l 346 807 l 346 692 l 461 692 l 461 576 l 576 576 l 576 0 l 461 0 l 461 231 l 115 231 l 115 0 l 0 0 l 0 576 l 115 576 l 115 692 l 231 692 l 231 807 m 231 692 l 231 576 l 115 576 l 115 346 l 461 346 l 461 576 l 346 576 l 346 692 l 231 692 z "},"Ä":{"ha":694,"x_min":0,"x_max":576,"o":"m 115 1153 l 231 1153 l 231 922 l 115 922 l 115 1153 m 346 1153 l 461 1153 l 461 922 l 346 922 l 346 1153 m 231 807 l 346 807 l 346 692 l 461 692 l 461 576 l 576 576 l 576 0 l 461 0 l 461 231 l 115 231 l 115 0 l 0 0 l 0 576 l 115 576 l 115 692 l 231 692 l 231 807 m 231 692 l 231 576 l 115 576 l 115 346 l 461 346 l 461 576 l 346 576 l 346 692 l 231 692 z "},"Å":{"ha":694,"x_min":0,"x_max":576,"o":"m 231 1153 l 346 1153 l 346 1038 l 461 1038 l 461 922 l 346 922 l 346 692 l 461 692 l 461 576 l 576 576 l 576 0 l 461 0 l 461 231 l 115 231 l 115 0 l 0 0 l 0 576 l 115 576 l 115 692 l 231 692 l 231 922 l 115 922 l 115 1038 l 231 1038 l 231 1153 m 231 1038 l 231 922 l 346 922 l 346 1038 l 231 1038 m 231 692 l 231 576 l 115 576 l 115 346 l 461 346 l 461 576 l 346 576 l 346 692 l 231 692 z "},"Æ":{"ha":694,"x_min":0,"x_max":576,"o":"m 115 1038 l 231 1038 l 231 922 l 346 922 l 346 1038 l 576 1038 l 576 922 l 346 922 l 346 576 l 461 576 l 461 461 l 346 461 l 346 115 l 576 115 l 576 0 l 231 0 l 231 346 l 115 346 l 115 0 l 0 0 l 0 922 l 115 922 l 115 1038 m 115 922 l 115 461 l 231 461 l 231 922 l 115 922 z "},"Ç":{"ha":694,"x_min":0,"x_max":576,"o":"m 115 1038 l 461 1038 l 461 922 l 576 922 l 576 807 l 461 807 l 461 922 l 115 922 l 115 115 l 461 115 l 461 231 l 576 231 l 576 115 l 461 115 l 461 0 l 346 0 l 346 -115 l 231 -115 l 231 -231 l 115 -231 l 115 -115 l 231 -115 l 231 0 l 115 0 l 115 115 l 0 115 l 0 922 l 115 922 l 115 1038 z "},"È":{"ha":694,"x_min":0,"x_max":576,"o":"m 115 1153 l 231 1153 l 231 1038 l 346 1038 l 346 922 l 231 922 l 231 1038 l 115 1038 l 115 1153 m 0 807 l 576 807 l 576 692 l 115 692 l 115 461 l 461 461 l 461 346 l 115 346 l 115 115 l 576 115 l 576 0 l 0 0 l 0 807 z "},"É":{"ha":694,"x_min":0,"x_max":576,"o":"m 346 1153 l 461 1153 l 461 1038 l 346 1038 l 346 922 l 231 922 l 231 1038 l 346 1038 l 346 1153 m 0 807 l 576 807 l 576 692 l 115 692 l 115 461 l 461 461 l 461 346 l 115 346 l 115 115 l 576 115 l 576 0 l 0 0 l 0 807 z "},"Ê":{"ha":694,"x_min":0,"x_max":576,"o":"m 231 1153 l 461 1153 l 461 1038 l 576 1038 l 576 922 l 461 922 l 461 1038 l 231 1038 l 231 922 l 115 922 l 115 1038 l 231 1038 l 231 1153 m 0 807 l 576 807 l 576 692 l 115 692 l 115 461 l 461 461 l 461 346 l 115 346 l 115 115 l 576 115 l 576 0 l 0 0 l 0 807 z "},"Ë":{"ha":694,"x_min":0,"x_max":576,"o":"m 115 1153 l 231 1153 l 231 922 l 115 922 l 115 1153 m 346 1153 l 461 1153 l 461 922 l 346 922 l 346 1153 m 0 807 l 576 807 l 576 692 l 115 692 l 115 461 l 461 461 l 461 346 l 115 346 l 115 115 l 576 115 l 576 0 l 0 0 l 0 807 z "},"Ì":{"ha":694,"x_min":115,"x_max":461,"o":"m 115 1153 l 231 1153 l 231 1038 l 346 1038 l 346 922 l 231 922 l 231 1038 l 115 1038 l 115 1153 m 115 807 l 461 807 l 461 692 l 346 692 l 346 115 l 461 115 l 461 0 l 115 0 l 115 115 l 231 115 l 231 692 l 115 692 l 115 807 z "},"Í":{"ha":694,"x_min":115,"x_max":461,"o":"m 346 1153 l 461 1153 l 461 1038 l 346 1038 l 346 922 l 231 922 l 231 1038 l 346 1038 l 346 1153 m 115 807 l 461 807 l 461 692 l 346 692 l 346 115 l 461 115 l 461 0 l 115 0 l 115 115 l 231 115 l 231 692 l 115 692 l 115 807 z "},"Î":{"ha":694,"x_min":115,"x_max":576,"o":"m 231 1153 l 461 1153 l 461 1038 l 576 1038 l 576 922 l 461 922 l 461 1038 l 231 1038 l 231 922 l 115 922 l 115 1038 l 231 1038 l 231 1153 m 115 807 l 461 807 l 461 692 l 346 692 l 346 115 l 461 115 l 461 0 l 115 0 l 115 115 l 231 115 l 231 692 l 115 692 l 115 807 z "},"Ï":{"ha":694,"x_min":115,"x_max":461,"o":"m 115 1153 l 231 1153 l 231 922 l 115 922 l 115 1153 m 346 1153 l 461 1153 l 461 922 l 346 922 l 346 1153 m 115 807 l 461 807 l 461 692 l 346 692 l 346 115 l 461 115 l 461 0 l 115 0 l 115 115 l 231 115 l 231 692 l 115 692 l 115 807 z "},"Ð":{"ha":694,"x_min":0,"x_max":576,"o":"m 0 1038 l 461 1038 l 461 922 l 576 922 l 576 115 l 461 115 l 461 0 l 0 0 l 0 115 l 115 115 l 115 461 l 0 461 l 0 576 l 115 576 l 115 922 l 0 922 l 0 1038 m 231 922 l 231 576 l 346 576 l 346 461 l 231 461 l 231 115 l 461 115 l 461 922 l 231 922 z "},"Ñ":{"ha":694,"x_min":0,"x_max":576,"o":"m 231 1153 l 346 1153 l 346 1038 l 461 1038 l 461 1153 l 576 1153 l 576 1038 l 461 1038 l 461 922 l 346 922 l 346 1038 l 231 1038 l 231 922 l 115 922 l 115 1038 l 231 1038 l 231 1153 m 0 807 l 115 807 l 115 576 l 231 576 l 231 461 l 346 461 l 346 346 l 461 346 l 461 807 l 576 807 l 576 0 l 461 0 l 461 231 l 346 231 l 346 346 l 231 346 l 231 461 l 115 461 l 115 0 l 0 0 l 0 807 z "},"Ò":{"ha":694,"x_min":0,"x_max":576,"o":"m 115 1153 l 231 1153 l 231 1038 l 346 1038 l 346 922 l 231 922 l 231 1038 l 115 1038 l 115 1153 m 115 807 l 461 807 l 461 692 l 576 692 l 576 115 l 461 115 l 461 0 l 115 0 l 115 115 l 0 115 l 0 692 l 115 692 l 115 807 m 115 692 l 115 115 l 461 115 l 461 692 l 115 692 z "},"Ó":{"ha":694,"x_min":0,"x_max":576,"o":"m 346 1153 l 461 1153 l 461 1038 l 346 1038 l 346 922 l 231 922 l 231 1038 l 346 1038 l 346 1153 m 115 807 l 461 807 l 461 692 l 576 692 l 576 115 l 461 115 l 461 0 l 115 0 l 115 115 l 0 115 l 0 692 l 115 692 l 115 807 m 115 692 l 115 115 l 461 115 l 461 692 l 115 692 z "},"Ô":{"ha":694,"x_min":0,"x_max":576,"o":"m 231 1153 l 461 1153 l 461 1038 l 576 1038 l 576 922 l 461 922 l 461 1038 l 231 1038 l 231 922 l 115 922 l 115 1038 l 231 1038 l 231 1153 m 115 807 l 461 807 l 461 692 l 576 692 l 576 115 l 461 115 l 461 0 l 115 0 l 115 115 l 0 115 l 0 692 l 115 692 l 115 807 m 115 692 l 115 115 l 461 115 l 461 692 l 115 692 z "},"Õ":{"ha":694,"x_min":0,"x_max":576,"o":"m 231 1153 l 346 1153 l 346 1038 l 461 1038 l 461 1153 l 576 1153 l 576 1038 l 461 1038 l 461 922 l 346 922 l 346 1038 l 231 1038 l 231 922 l 115 922 l 115 1038 l 231 1038 l 231 1153 m 115 807 l 461 807 l 461 692 l 576 692 l 576 115 l 461 115 l 461 0 l 115 0 l 115 115 l 0 115 l 0 692 l 115 692 l 115 807 m 115 692 l 115 115 l 461 115 l 461 692 l 115 692 z "},"Ö":{"ha":694,"x_min":0,"x_max":576,"o":"m 115 1153 l 231 1153 l 231 922 l 115 922 l 115 1153 m 346 1153 l 461 1153 l 461 922 l 346 922 l 346 1153 m 115 807 l 461 807 l 461 692 l 576 692 l 576 115 l 461 115 l 461 0 l 115 0 l 115 115 l 0 115 l 0 692 l 115 692 l 115 807 m 115 692 l 115 115 l 461 115 l 461 692 l 115 692 z "},"×":{"ha":694,"x_min":0,"x_max":576,"o":"m 0 692 l 115 692 l 115 576 l 231 576 l 231 461 l 346 461 l 346 576 l 461 576 l 461 692 l 576 692 l 576 576 l 461 576 l 461 461 l 346 461 l 346 346 l 461 346 l 461 231 l 576 231 l 576 115 l 461 115 l 461 231 l 346 231 l 346 346 l 231 346 l 231 231 l 115 231 l 115 115 l 0 115 l 0 231 l 115 231 l 115 346 l 231 346 l 231 461 l 115 461 l 115 576 l 0 576 l 0 692 z "},"Ø":{"ha":694,"x_min":0,"x_max":576,"o":"m 461 1153 l 576 1153 l 576 1038 l 461 1038 l 461 922 l 576 922 l 576 115 l 461 115 l 461 0 l 115 0 l 115 -115 l 0 -115 l 0 0 l 115 0 l 115 115 l 0 115 l 0 922 l 115 922 l 115 1038 l 461 1038 l 461 1153 m 115 922 l 115 346 l 231 346 l 231 115 l 461 115 l 461 692 l 346 692 l 346 922 l 115 922 m 231 692 l 346 692 l 346 346 l 231 346 l 231 692 z "},"Ù":{"ha":694,"x_min":0,"x_max":576,"o":"m 115 1153 l 231 1153 l 231 1038 l 346 1038 l 346 922 l 231 922 l 231 1038 l 115 1038 l 115 1153 m 0 807 l 115 807 l 115 115 l 461 115 l 461 807 l 576 807 l 576 115 l 461 115 l 461 0 l 115 0 l 115 115 l 0 115 l 0 807 z "},"Ú":{"ha":694,"x_min":0,"x_max":576,"o":"m 346 1153 l 461 1153 l 461 1038 l 346 1038 l 346 922 l 231 922 l 231 1038 l 346 1038 l 346 1153 m 0 807 l 115 807 l 115 115 l 461 115 l 461 807 l 576 807 l 576 115 l 461 115 l 461 0 l 115 0 l 115 115 l 0 115 l 0 807 z "},"Û":{"ha":694,"x_min":0,"x_max":576,"o":"m 231 1153 l 461 1153 l 461 1038 l 576 1038 l 576 922 l 461 922 l 461 1038 l 231 1038 l 231 922 l 115 922 l 115 1038 l 231 1038 l 231 1153 m 0 807 l 115 807 l 115 115 l 461 115 l 461 807 l 576 807 l 576 115 l 461 115 l 461 0 l 115 0 l 115 115 l 0 115 l 0 807 z "},"Ü":{"ha":694,"x_min":0,"x_max":576,"o":"m 115 1153 l 231 1153 l 231 922 l 115 922 l 115 1153 m 346 1153 l 461 1153 l 461 922 l 346 922 l 346 1153 m 0 807 l 115 807 l 115 115 l 461 115 l 461 807 l 576 807 l 576 115 l 461 115 l 461 0 l 115 0 l 115 115 l 0 115 l 0 807 z "},"Ý":{"ha":694,"x_min":0,"x_max":576,"o":"m 346 1153 l 461 1153 l 461 1038 l 346 1038 l 346 922 l 231 922 l 231 1038 l 346 1038 l 346 1153 m 0 807 l 115 807 l 115 576 l 231 576 l 231 461 l 346 461 l 346 576 l 461 576 l 461 807 l 576 807 l 576 576 l 461 576 l 461 461 l 346 461 l 346 0 l 231 0 l 231 461 l 115 461 l 115 576 l 0 576 l 0 807 z "},"Þ":{"ha":694,"x_min":0,"x_max":576,"o":"m 0 1038 l 115 1038 l 115 922 l 461 922 l 461 807 l 576 807 l 576 461 l 461 461 l 461 346 l 115 346 l 115 0 l 0 0 l 0 1038 m 115 807 l 115 461 l 461 461 l 461 807 l 115 807 z "},"ß":{"ha":694,"x_min":0,"x_max":576,"o":"m 115 1038 l 346 1038 l 346 922 l 461 922 l 461 692 l 346 692 l 346 461 l 461 461 l 461 346 l 576 346 l 576 115 l 461 115 l 461 0 l 231 0 l 231 115 l 461 115 l 461 346 l 346 346 l 346 461 l 231 461 l 231 692 l 346 692 l 346 922 l 115 922 l 115 0 l 0 0 l 0 922 l 115 922 l 115 1038 z "},"à":{"ha":694,"x_min":0,"x_max":576,"o":"m 115 1038 l 231 1038 l 231 922 l 346 922 l 346 807 l 231 807 l 231 922 l 115 922 l 115 1038 m 115 692 l 461 692 l 461 576 l 576 576 l 576 0 l 461 0 l 461 115 l 346 115 l 346 0 l 115 0 l 115 115 l 0 115 l 0 346 l 115 346 l 115 461 l 461 461 l 461 576 l 115 576 l 115 692 m 115 346 l 115 115 l 346 115 l 346 231 l 461 231 l 461 346 l 115 346 z "},"á":{"ha":694,"x_min":0,"x_max":576,"o":"m 346 1038 l 461 1038 l 461 922 l 346 922 l 346 807 l 231 807 l 231 922 l 346 922 l 346 1038 m 115 692 l 461 692 l 461 576 l 576 576 l 576 0 l 461 0 l 461 115 l 346 115 l 346 0 l 115 0 l 115 115 l 0 115 l 0 346 l 115 346 l 115 461 l 461 461 l 461 576 l 115 576 l 115 692 m 115 346 l 115 115 l 346 115 l 346 231 l 461 231 l 461 346 l 115 346 z "},"â":{"ha":694,"x_min":0,"x_max":576,"o":"m 231 1038 l 461 1038 l 461 922 l 576 922 l 576 807 l 461 807 l 461 922 l 231 922 l 231 807 l 115 807 l 115 922 l 231 922 l 231 1038 m 115 692 l 461 692 l 461 576 l 576 576 l 576 0 l 461 0 l 461 115 l 346 115 l 346 0 l 115 0 l 115 115 l 0 115 l 0 346 l 115 346 l 115 461 l 461 461 l 461 576 l 115 576 l 115 692 m 115 346 l 115 115 l 346 115 l 346 231 l 461 231 l 461 346 l 115 346 z "},"ã":{"ha":694,"x_min":0,"x_max":576,"o":"m 231 1038 l 346 1038 l 346 922 l 461 922 l 461 1038 l 576 1038 l 576 922 l 461 922 l 461 807 l 346 807 l 346 922 l 231 922 l 231 807 l 115 807 l 115 922 l 231 922 l 231 1038 m 115 692 l 461 692 l 461 576 l 576 576 l 576 0 l 461 0 l 461 115 l 346 115 l 346 0 l 115 0 l 115 115 l 0 115 l 0 346 l 115 346 l 115 461 l 461 461 l 461 576 l 115 576 l 115 692 m 115 346 l 115 115 l 346 115 l 346 231 l 461 231 l 461 346 l 115 346 z "},"ä":{"ha":694,"x_min":0,"x_max":576,"o":"m 115 1038 l 231 1038 l 231 807 l 115 807 l 115 1038 m 346 1038 l 461 1038 l 461 807 l 346 807 l 346 1038 m 115 692 l 461 692 l 461 576 l 576 576 l 576 0 l 461 0 l 461 115 l 346 115 l 346 0 l 115 0 l 115 115 l 0 115 l 0 346 l 115 346 l 115 461 l 461 461 l 461 576 l 115 576 l 115 692 m 115 346 l 115 115 l 346 115 l 346 231 l 461 231 l 461 346 l 115 346 z "},"å":{"ha":694,"x_min":0,"x_max":576,"o":"m 231 1153 l 461 1153 l 461 1038 l 576 1038 l 576 922 l 461 922 l 461 807 l 231 807 l 231 922 l 115 922 l 115 1038 l 231 1038 l 231 1153 m 231 1038 l 231 922 l 461 922 l 461 1038 l 231 1038 m 115 692 l 461 692 l 461 576 l 576 576 l 576 0 l 461 0 l 461 115 l 346 115 l 346 0 l 115 0 l 115 115 l 0 115 l 0 346 l 115 346 l 115 461 l 461 461 l 461 576 l 115 576 l 115 692 m 115 346 l 115 115 l 346 115 l 346 231 l 461 231 l 461 346 l 115 346 z "},"æ":{"ha":694,"x_min":0,"x_max":576,"o":"m 115 692 l 461 692 l 461 576 l 576 576 l 576 461 l 461 461 l 461 346 l 346 346 l 346 115 l 461 115 l 461 231 l 576 231 l 576 115 l 461 115 l 461 0 l 346 0 l 346 115 l 231 115 l 231 0 l 115 0 l 115 115 l 0 115 l 0 346 l 115 346 l 115 461 l 231 461 l 231 576 l 115 576 l 115 692 m 346 576 l 346 461 l 461 461 l 461 576 l 346 576 m 115 346 l 115 115 l 231 115 l 231 346 l 115 346 z "},"ç":{"ha":694,"x_min":0,"x_max":576,"o":"m 115 692 l 461 692 l 461 576 l 576 576 l 576 461 l 461 461 l 461 576 l 115 576 l 115 115 l 461 115 l 461 231 l 576 231 l 576 115 l 461 115 l 461 0 l 346 0 l 346 -115 l 231 -115 l 231 -231 l 115 -231 l 115 -115 l 231 -115 l 231 0 l 115 0 l 115 115 l 0 115 l 0 576 l 115 576 l 115 692 z "},"è":{"ha":694,"x_min":0,"x_max":576,"o":"m 115 1038 l 231 1038 l 231 922 l 346 922 l 346 807 l 231 807 l 231 922 l 115 922 l 115 1038 m 115 692 l 461 692 l 461 576 l 576 576 l 576 346 l 115 346 l 115 115 l 461 115 l 461 231 l 576 231 l 576 115 l 461 115 l 461 0 l 115 0 l 115 115 l 0 115 l 0 576 l 115 576 l 115 692 m 115 576 l 115 461 l 461 461 l 461 576 l 115 576 z "},"é":{"ha":694,"x_min":0,"x_max":576,"o":"m 346 1038 l 461 1038 l 461 922 l 346 922 l 346 807 l 231 807 l 231 922 l 346 922 l 346 1038 m 115 692 l 461 692 l 461 576 l 576 576 l 576 346 l 115 346 l 115 115 l 461 115 l 461 231 l 576 231 l 576 115 l 461 115 l 461 0 l 115 0 l 115 115 l 0 115 l 0 576 l 115 576 l 115 692 m 115 576 l 115 461 l 461 461 l 461 576 l 115 576 z "},"ê":{"ha":694,"x_min":0,"x_max":576,"o":"m 231 1038 l 461 1038 l 461 922 l 576 922 l 576 807 l 461 807 l 461 922 l 231 922 l 231 807 l 115 807 l 115 922 l 231 922 l 231 1038 m 115 692 l 461 692 l 461 576 l 576 576 l 576 346 l 115 346 l 115 115 l 461 115 l 461 231 l 576 231 l 576 115 l 461 115 l 461 0 l 115 0 l 115 115 l 0 115 l 0 576 l 115 576 l 115 692 m 115 576 l 115 461 l 461 461 l 461 576 l 115 576 z "},"ë":{"ha":694,"x_min":0,"x_max":576,"o":"m 115 1038 l 231 1038 l 231 807 l 115 807 l 115 1038 m 346 1038 l 461 1038 l 461 807 l 346 807 l 346 1038 m 115 692 l 461 692 l 461 576 l 576 576 l 576 346 l 115 346 l 115 115 l 461 115 l 461 231 l 576 231 l 576 115 l 461 115 l 461 0 l 115 0 l 115 115 l 0 115 l 0 576 l 115 576 l 115 692 m 115 576 l 115 461 l 461 461 l 461 576 l 115 576 z "},"ì":{"ha":694,"x_min":115,"x_max":461,"o":"m 115 1038 l 231 1038 l 231 922 l 346 922 l 346 807 l 231 807 l 231 922 l 115 922 l 115 1038 m 115 692 l 346 692 l 346 115 l 461 115 l 461 0 l 115 0 l 115 115 l 231 115 l 231 576 l 115 576 l 115 692 z "},"í":{"ha":694,"x_min":115,"x_max":461,"o":"m 346 1038 l 461 1038 l 461 922 l 346 922 l 346 807 l 231 807 l 231 922 l 346 922 l 346 1038 m 115 692 l 346 692 l 346 115 l 461 115 l 461 0 l 115 0 l 115 115 l 231 115 l 231 576 l 115 576 l 115 692 z "},"î":{"ha":694,"x_min":115,"x_max":576,"o":"m 231 1038 l 461 1038 l 461 922 l 576 922 l 576 807 l 461 807 l 461 922 l 231 922 l 231 807 l 115 807 l 115 922 l 231 922 l 231 1038 m 115 692 l 346 692 l 346 115 l 461 115 l 461 0 l 115 0 l 115 115 l 231 115 l 231 576 l 115 576 l 115 692 z "},"ï":{"ha":694,"x_min":115,"x_max":461,"o":"m 115 1038 l 231 1038 l 231 807 l 115 807 l 115 1038 m 346 1038 l 461 1038 l 461 807 l 346 807 l 346 1038 m 115 692 l 346 692 l 346 115 l 461 115 l 461 0 l 115 0 l 115 115 l 231 115 l 231 576 l 115 576 l 115 692 z "},"ð":{"ha":694,"x_min":0,"x_max":576,"o":"m 115 1153 l 231 1153 l 231 1038 l 346 1038 l 346 1153 l 461 1153 l 461 1038 l 346 1038 l 346 807 l 461 807 l 461 576 l 576 576 l 576 115 l 461 115 l 461 0 l 115 0 l 115 115 l 0 115 l 0 576 l 115 576 l 115 692 l 346 692 l 346 807 l 115 807 l 115 922 l 231 922 l 231 1038 l 115 1038 l 115 1153 m 115 576 l 115 115 l 461 115 l 461 576 l 115 576 z "},"ñ":{"ha":694,"x_min":0,"x_max":576,"o":"m 231 1038 l 346 1038 l 346 922 l 461 922 l 461 1038 l 576 1038 l 576 922 l 461 922 l 461 807 l 346 807 l 346 922 l 231 922 l 231 807 l 115 807 l 115 922 l 231 922 l 231 1038 m 0 692 l 115 692 l 115 576 l 231 576 l 231 692 l 461 692 l 461 576 l 576 576 l 576 0 l 461 0 l 461 576 l 231 576 l 231 461 l 115 461 l 115 0 l 0 0 l 0 692 z "},"ò":{"ha":694,"x_min":0,"x_max":576,"o":"m 115 1038 l 231 1038 l 231 922 l 346 922 l 346 807 l 231 807 l 231 922 l 115 922 l 115 1038 m 115 692 l 461 692 l 461 576 l 576 576 l 576 115 l 461 115 l 461 0 l 115 0 l 115 115 l 0 115 l 0 576 l 115 576 l 115 692 m 115 576 l 115 115 l 461 115 l 461 576 l 115 576 z "},"ó":{"ha":694,"x_min":0,"x_max":576,"o":"m 346 1038 l 461 1038 l 461 922 l 346 922 l 346 807 l 231 807 l 231 922 l 346 922 l 346 1038 m 115 692 l 461 692 l 461 576 l 576 576 l 576 115 l 461 115 l 461 0 l 115 0 l 115 115 l 0 115 l 0 576 l 115 576 l 115 692 m 115 576 l 115 115 l 461 115 l 461 576 l 115 576 z "},"ô":{"ha":694,"x_min":0,"x_max":576,"o":"m 231 1038 l 461 1038 l 461 922 l 576 922 l 576 807 l 461 807 l 461 922 l 231 922 l 231 807 l 115 807 l 115 922 l 231 922 l 231 1038 m 115 692 l 461 692 l 461 576 l 576 576 l 576 115 l 461 115 l 461 0 l 115 0 l 115 115 l 0 115 l 0 576 l 115 576 l 115 692 m 115 576 l 115 115 l 461 115 l 461 576 l 115 576 z "},"õ":{"ha":694,"x_min":0,"x_max":576,"o":"m 231 1038 l 346 1038 l 346 922 l 461 922 l 461 1038 l 576 1038 l 576 922 l 461 922 l 461 807 l 346 807 l 346 922 l 231 922 l 231 807 l 115 807 l 115 922 l 231 922 l 231 1038 m 115 692 l 461 692 l 461 576 l 576 576 l 576 115 l 461 115 l 461 0 l 115 0 l 115 115 l 0 115 l 0 576 l 115 576 l 115 692 m 115 576 l 115 115 l 461 115 l 461 576 l 115 576 z "},"ö":{"ha":694,"x_min":0,"x_max":576,"o":"m 115 1038 l 231 1038 l 231 807 l 115 807 l 115 1038 m 346 1038 l 461 1038 l 461 807 l 346 807 l 346 1038 m 115 692 l 461 692 l 461 576 l 576 576 l 576 115 l 461 115 l 461 0 l 115 0 l 115 115 l 0 115 l 0 576 l 115 576 l 115 692 m 115 576 l 115 115 l 461 115 l 461 576 l 115 576 z "},"÷":{"ha":694,"x_min":0,"x_max":576,"o":"m 231 922 l 346 922 l 346 692 l 231 692 l 231 922 m 0 576 l 576 576 l 576 461 l 0 461 l 0 576 m 231 346 l 346 346 l 346 115 l 231 115 l 231 346 z "},"ø":{"ha":694,"x_min":0,"x_max":576,"o":"m 461 807 l 576 807 l 576 692 l 461 692 l 461 576 l 576 576 l 576 115 l 461 115 l 461 0 l 115 0 l 115 -115 l 0 -115 l 0 0 l 115 0 l 115 115 l 0 115 l 0 576 l 115 576 l 115 692 l 461 692 l 461 807 m 115 576 l 115 231 l 231 231 l 231 115 l 461 115 l 461 461 l 346 461 l 346 576 l 115 576 m 231 461 l 346 461 l 346 231 l 231 231 l 231 461 z "},"ù":{"ha":694,"x_min":0,"x_max":576,"o":"m 115 1038 l 231 1038 l 231 922 l 346 922 l 346 807 l 231 807 l 231 922 l 115 922 l 115 1038 m 0 692 l 115 692 l 115 115 l 346 115 l 346 231 l 461 231 l 461 692 l 576 692 l 576 0 l 461 0 l 461 115 l 346 115 l 346 0 l 115 0 l 115 115 l 0 115 l 0 692 z "},"ú":{"ha":694,"x_min":0,"x_max":576,"o":"m 346 1038 l 461 1038 l 461 922 l 346 922 l 346 807 l 231 807 l 231 922 l 346 922 l 346 1038 m 0 692 l 115 692 l 115 115 l 346 115 l 346 231 l 461 231 l 461 692 l 576 692 l 576 0 l 461 0 l 461 115 l 346 115 l 346 0 l 115 0 l 115 115 l 0 115 l 0 692 z "},"û":{"ha":694,"x_min":0,"x_max":576,"o":"m 231 1038 l 461 1038 l 461 922 l 576 922 l 576 807 l 461 807 l 461 922 l 231 922 l 231 807 l 115 807 l 115 922 l 231 922 l 231 1038 m 0 692 l 115 692 l 115 115 l 346 115 l 346 231 l 461 231 l 461 692 l 576 692 l 576 0 l 461 0 l 461 115 l 346 115 l 346 0 l 115 0 l 115 115 l 0 115 l 0 692 z "},"ü":{"ha":694,"x_min":0,"x_max":576,"o":"m 115 1038 l 231 1038 l 231 807 l 115 807 l 115 1038 m 346 1038 l 461 1038 l 461 807 l 346 807 l 346 1038 m 0 692 l 115 692 l 115 115 l 346 115 l 346 231 l 461 231 l 461 692 l 576 692 l 576 0 l 461 0 l 461 115 l 346 115 l 346 0 l 115 0 l 115 115 l 0 115 l 0 692 z "},"ý":{"ha":694,"x_min":0,"x_max":576,"o":"m 346 1038 l 461 1038 l 461 922 l 346 922 l 346 807 l 231 807 l 231 922 l 346 922 l 346 1038 m 0 692 l 115 692 l 115 231 l 346 231 l 346 346 l 461 346 l 461 692 l 576 692 l 576 -115 l 461 -115 l 461 -231 l 115 -231 l 115 -115 l 0 -115 l 0 0 l 115 0 l 115 -115 l 461 -115 l 461 231 l 346 231 l 346 115 l 115 115 l 115 231 l 0 231 l 0 692 z "},"þ":{"ha":694,"x_min":0,"x_max":576,"o":"m 0 922 l 115 922 l 115 576 l 231 576 l 231 692 l 461 692 l 461 576 l 576 576 l 576 115 l 461 115 l 461 0 l 231 0 l 231 115 l 115 115 l 115 -231 l 0 -231 l 0 922 m 231 576 l 231 461 l 115 461 l 115 231 l 231 231 l 231 115 l 461 115 l 461 576 l 231 576 z "},"ÿ":{"ha":694,"x_min":0,"x_max":576,"o":"m 115 1038 l 231 1038 l 231 807 l 115 807 l 115 1038 m 346 1038 l 461 1038 l 461 807 l 346 807 l 346 1038 m 0 692 l 115 692 l 115 231 l 346 231 l 346 346 l 461 346 l 461 692 l 576 692 l 576 -115 l 461 -115 l 461 -231 l 115 -231 l 115 -115 l 0 -115 l 0 0 l 115 0 l 115 -115 l 461 -115 l 461 231 l 346 231 l 346 115 l 115 115 l 115 231 l 0 231 l 0 692 z "},"▒":{"ha":694,"x_min":0,"x_max":692,"o":"m 0 1268 l 115 1268 l 115 1153 l 231 1153 l 231 1268 l 346 1268 l 346 1153 l 461 1153 l 461 1268 l 576 1268 l 576 1153 l 692 1153 l 692 1038 l 576 1038 l 576 922 l 692 922 l 692 807 l 576 807 l 576 692 l 692 692 l 692 576 l 576 576 l 576 461 l 692 461 l 692 346 l 576 346 l 576 231 l 692 231 l 692 115 l 576 115 l 576 0 l 692 0 l 692 -115 l 576 -115 l 576 -231 l 461 -231 l 461 -115 l 346 -115 l 346 -231 l 231 -231 l 231 -115 l 115 -115 l 115 -231 l 0 -231 l 0 -115 l 115 -115 l 115 0 l 0 0 l 0 115 l 115 115 l 115 231 l 0 231 l 0 346 l 115 346 l 115 461 l 0 461 l 0 576 l 115 576 l 115 692 l 0 692 l 0 807 l 115 807 l 115 922 l 0 922 l 0 1038 l 115 1038 l 115 1153 l 0 1153 l 0 1268 m 231 1153 l 231 1038 l 115 1038 l 115 922 l 231 922 l 231 807 l 115 807 l 115 692 l 231 692 l 231 576 l 115 576 l 115 461 l 231 461 l 231 346 l 115 346 l 115 231 l 231 231 l 231 115 l 115 115 l 115 0 l 231 0 l 231 -115 l 346 -115 l 346 0 l 461 0 l 461 -115 l 576 -115 l 576 0 l 461 0 l 461 115 l 576 115 l 576 231 l 461 231 l 461 346 l 576 346 l 576 461 l 461 461 l 461 576 l 576 576 l 576 692 l 461 692 l 461 807 l 576 807 l 576 922 l 461 922 l 461 1038 l 576 1038 l 576 1153 l 461 1153 l 461 1038 l 346 1038 l 346 1153 l 231 1153 m 231 1038 l 346 1038 l 346 922 l 461 922 l 461 807 l 346 807 l 346 692 l 461 692 l 461 576 l 346 576 l 346 461 l 461 461 l 461 346 l 346 346 l 346 231 l 461 231 l 461 115 l 346 115 l 346 0 l 231 0 l 231 115 l 346 115 l 346 231 l 231 231 l 231 346 l 346 346 l 346 461 l 231 461 l 231 576 l 346 576 l 346 692 l 231 692 l 231 807 l 346 807 l 346 922 l 231 922 l 231 1038 z "},"┘":{"ha":694,"x_min":0,"x_max":346,"o":"m 231 1268 l 346 1268 l 346 461 l 0 461 l 0 576 l 231 576 l 231 1268 z "},"┐":{"ha":694,"x_min":0,"x_max":346,"o":"m 0 576 l 346 576 l 346 -231 l 231 -231 l 231 461 l 0 461 l 0 576 z "},"┌":{"ha":694,"x_min":231,"x_max":692,"o":"m 231 576 l 692 576 l 692 461 l 346 461 l 346 -231 l 231 -231 l 231 576 z "},"└":{"ha":694,"x_min":231,"x_max":692,"o":"m 231 1268 l 346 1268 l 346 576 l 692 576 l 692 461 l 231 461 l 231 1268 z "},"┼":{"ha":694,"x_min":0,"x_max":692,"o":"m 231 1268 l 346 1268 l 346 576 l 692 576 l 692 461 l 346 461 l 346 -231 l 231 -231 l 231 461 l 0 461 l 0 576 l 231 576 l 231 1268 z "},"─":{"ha":694,"x_min":0,"x_max":692,"o":"m 0 576 l 692 576 l 692 461 l 0 461 l 0 576 z "},"├":{"ha":694,"x_min":231,"x_max":692,"o":"m 231 1268 l 346 1268 l 346 576 l 692 576 l 692 461 l 346 461 l 346 -231 l 231 -231 l 231 1268 z "},"┤":{"ha":694,"x_min":0,"x_max":346,"o":"m 231 1268 l 346 1268 l 346 -231 l 231 -231 l 231 461 l 0 461 l 0 576 l 231 576 l 231 1268 z "},"┴":{"ha":694,"x_min":0,"x_max":692,"o":"m 231 1268 l 346 1268 l 346 576 l 692 576 l 692 461 l 0 461 l 0 576 l 231 576 l 231 1268 z "},"┬":{"ha":694,"x_min":0,"x_max":692,"o":"m 0 576 l 692 576 l 692 461 l 346 461 l 346 -231 l 231 -231 l 231 461 l 0 461 l 0 576 z "},"│":{"ha":694,"x_min":231,"x_max":346,"o":"m 231 1268 l 346 1268 l 346 -231 l 231 -231 l 231 1268 z "},"≤":{"ha":694,"x_min":0,"x_max":576,"o":"m 346 922 l 576 922 l 576 807 l 346 807 l 346 692 l 115 692 l 115 576 l 346 576 l 346 461 l 576 461 l 576 346 l 346 346 l 346 461 l 115 461 l 115 576 l 0 576 l 0 692 l 115 692 l 115 807 l 346 807 l 346 922 m 0 231 l 576 231 l 576 115 l 0 115 l 0 231 z "},"≥":{"ha":694,"x_min":0,"x_max":576,"o":"m 0 922 l 231 922 l 231 807 l 461 807 l 461 692 l 576 692 l 576 576 l 461 576 l 461 461 l 231 461 l 231 346 l 0 346 l 0 461 l 231 461 l 231 576 l 461 576 l 461 692 l 231 692 l 231 807 l 0 807 l 0 922 m 0 231 l 576 231 l 576 115 l 0 115 l 0 231 z "},"π":{"ha":694,"x_min":0,"x_max":576,"o":"m 0 692 l 576 692 l 576 576 l 461 576 l 461 0 l 346 0 l 346 576 l 231 576 l 231 0 l 115 0 l 115 576 l 0 576 l 0 692 z "},"≠":{"ha":694,"x_min":0,"x_max":576,"o":"m 461 692 l 576 692 l 576 461 l 346 461 l 346 346 l 576 346 l 576 231 l 115 231 l 115 115 l 0 115 l 0 346 l 231 346 l 231 461 l 0 461 l 0 576 l 461 576 l 461 692 z "},"µ":{"ha":694,"x_min":0,"x_max":576,"o":"m 0 692 l 115 692 l 115 115 l 346 115 l 346 231 l 461 231 l 461 692 l 576 692 l 576 0 l 461 0 l 461 115 l 346 115 l 346 0 l 115 0 l 115 -231 l 0 -231 l 0 692 z "}}}
